<svg xmlns="http://www.w3.org/2000/svg" width="193.472" height="184.32" viewBox="0 0 193.472 184.32">
  <g id="baseball" transform="translate(-72.834 -1928)">
    <g id="f0503_0" transform="translate(68.834 2116.12) rotate(-90)">
      <path id="パス_1" data-name="パス 1" d="M95.96,4A92.169,92.169,0,0,0,82.794,187.392c1.905.269,4.934,2.15,7.3,5.081,2.589,3.224,4.959,5.691,5.862,4.812.9.9,3.273-1.588,5.862-4.812,2.369-2.931,5.4-4.812,7.3-5.081A92.169,92.169,0,0,0,95.96,4Z" transform="translate(0)" fill="#3fbdff"/>
      <path id="パス_2" data-name="パス 2" d="M95.96,4A92.169,92.169,0,0,0,82.794,187.392c1.905.269,4.934,2.15,7.3,5.081,2.589,3.224,4.959,5.691,5.862,4.812.9.9,3.273-1.588,5.862-4.812,2.369-2.931,5.4-4.812,7.3-5.081A92.169,92.169,0,0,0,95.96,4Z" transform="translate(0)" fill="#3fbdff"/>
      <g id="グループ_1336" data-name="グループ 1336" transform="translate(3.8 4)">
        <path id="パス_3" data-name="パス 3" d="M117.412,7.914c-3-.66-6.082-1.148-9.184-1.514L6.2,108.428a87.791,87.791,0,0,0,1.514,9.184Z" transform="translate(-5.614 -5.814)" fill="#5fd9ff"/>
        <path id="パス_4" data-name="パス 4" d="M81.732,17.3a91.453,91.453,0,0,0-17.416,6.717l-40.5,40.5A90.828,90.828,0,0,0,17.1,81.932Z" transform="translate(-13.851 -14.051)" fill="#5fd9ff"/>
        <path id="パス_5" data-name="パス 5" d="M145.294,24.682c-2.54-1.075-5.154-2.027-7.816-2.882L21.6,137.678c.855,2.662,1.808,5.252,2.882,7.792Z" transform="translate(-17.252 -17.452)" fill="#5fd9ff"/>
        <path id="パス_6" data-name="パス 6" d="M454.442,374.574c0-.733,0-1.441-.024-2.174L356.2,470.618c.073.1.147.171.22.269,2.125,2.638,4.1,4.788,5.252,4.959l92.355-92.355C454.3,380.558,454.442,377.578,454.442,374.574Z" transform="translate(-270.122 -282.414)" fill="#5fd9ff"/>
        <path id="パス_7" data-name="パス 7" d="M405.446,294.8,294.6,405.646c2.614.611,5.276,1.124,7.987,1.514a5.474,5.474,0,0,1,.953.244L407.107,303.838A90.74,90.74,0,0,0,405.446,294.8Z" transform="translate(-223.569 -223.769)" fill="#5fd9ff"/>
        <path id="パス_8" data-name="パス 8" d="M95.96,4a91.068,91.068,0,0,0-11.016.66L4.46,85.144A91.067,91.067,0,0,0,3.8,96.16V96.5L96.3,4Z" transform="translate(-3.8 -4)" fill="#5fd9ff"/>
        <path id="パス_9" data-name="パス 9" d="M178.915,51.657c-2.174-1.417-4.446-2.736-6.742-3.957L47.6,172.273c1.221,2.3,2.54,4.568,3.957,6.742Z" transform="translate(-36.901 -37.026)" fill="#5fd9ff"/>
        <path id="パス_10" data-name="パス 10" d="M353.5,236.894q-1.319-3.92-3-7.694L229,350.72c2.516,1.1,5.081,2.1,7.694,2.98Z" transform="translate(-173.992 -174.192)" fill="#5fd9ff"/>
        <path id="パス_11" data-name="パス 11" d="M216.952,86.961c-1.881-1.71-3.81-3.322-5.838-4.861L81.9,211.314c1.539,2,3.175,3.957,4.861,5.813Z" transform="translate(-62.823 -63.023)" fill="#5fd9ff"/>
        <path id="パス_12" data-name="パス 12" d="M532.44,486.841a90.917,90.917,0,0,0,5.642-16.341L470.3,538.283a90.937,90.937,0,0,0,16.341-5.642Z" transform="translate(-356.352 -356.552)" fill="#5fd9ff"/>
        <path id="パス_13" data-name="パス 13" d="M258.7,129.44c-1.563-1.979-3.224-3.908-4.958-5.74L123.5,253.965c1.856,1.734,3.762,3.371,5.74,4.958Z" transform="translate(-94.262 -94.462)" fill="#5fd9ff"/>
        <path id="パス_14" data-name="パス 14" d="M304.2,179.268q-1.869-3.407-4.03-6.668L172.4,300.373q3.224,2.162,6.668,4.03Z" transform="translate(-131.217 -131.417)" fill="#5fd9ff"/>
      </g>
      <circle id="楕円形_5" data-name="楕円形 5" cx="72.375" cy="72.375" r="72.375" transform="translate(23.585 23.785)" fill="#fff"/>
    </g>
    <text id="ワンポイント_アドバイス" data-name="ワンポイント
アドバイス" transform="translate(168 2015.729)" fill="#3fbdff" font-size="22" font-family="Meiryo-Bold, Meiryo" font-weight="700"><tspan x="-66" y="0">ワンポイント</tspan><tspan x="-55" y="36">アドバイス</tspan></text>
  </g>
</svg>
