<svg xmlns="http://www.w3.org/2000/svg" width="181.709" height="173.114" viewBox="0 0 181.709 173.114">
  <g id="tf" transform="translate(-88 -1925.953)">
    <g id="f0503_1" transform="translate(84 2102.867) rotate(-90)">
      <path id="パス_15" data-name="パス 15" d="M90.357,4A86.566,86.566,0,0,0,77.992,176.242c1.789.252,4.634,2.019,6.859,4.772,2.432,3.028,4.657,5.345,5.506,4.519.849.849,3.074-1.491,5.506-4.519,2.225-2.753,5.07-4.519,6.859-4.772A86.566,86.566,0,0,0,90.357,4Z" transform="translate(0)" fill="#0fdc4e"/>
      <path id="パス_16" data-name="パス 16" d="M90.357,4A86.566,86.566,0,0,0,77.992,176.242c1.789.252,4.634,2.019,6.859,4.772,2.432,3.028,4.657,5.345,5.506,4.519.849.849,3.074-1.491,5.506-4.519,2.225-2.753,5.07-4.519,6.859-4.772A86.566,86.566,0,0,0,90.357,4Z" transform="translate(0)" fill="#0fdc4e"/>
      <g id="グループ_1345" data-name="グループ 1345" transform="translate(3.8 4)">
        <path id="パス_17" data-name="パス 17" d="M110.651,7.822c-2.822-.619-5.712-1.078-8.626-1.422L6.2,102.225a82.453,82.453,0,0,0,1.422,8.626Z" transform="translate(-5.649 -5.849)" fill="#98fcb7"/>
        <path id="パス_18" data-name="パス 18" d="M77.8,17.3a85.893,85.893,0,0,0-16.357,6.309L23.409,61.645A85.306,85.306,0,0,0,17.1,78Z" transform="translate(-14.049 -14.249)" fill="#98fcb7"/>
        <path id="パス_19" data-name="パス 19" d="M137.774,24.507c-2.386-1.009-4.841-1.9-7.341-2.707L21.6,130.633c.8,2.5,1.7,4.932,2.707,7.318Z" transform="translate(-17.516 -17.716)" fill="#98fcb7"/>
        <path id="パス_20" data-name="パス 20" d="M448.469,374.442c0-.688,0-1.354-.023-2.042L356.2,464.646c.069.092.138.161.206.252,2,2.478,3.854,4.5,4.932,4.657l86.741-86.741C448.332,380.062,448.469,377.263,448.469,374.442Z" transform="translate(-275.355 -287.885)" fill="#98fcb7"/>
        <path id="パス_21" data-name="パス 21" d="M398.707,294.8,294.6,398.907c2.455.574,4.955,1.055,7.5,1.422a5.147,5.147,0,0,1,.895.229l97.271-97.271A85.241,85.241,0,0,0,398.707,294.8Z" transform="translate(-227.887 -228.087)" fill="#98fcb7"/>
        <path id="パス_22" data-name="パス 22" d="M90.357,4a85.531,85.531,0,0,0-10.346.619L4.419,80.211A85.531,85.531,0,0,0,3.8,90.557v.321L90.678,4Z" transform="translate(-3.8 -4)" fill="#98fcb7"/>
        <path id="パス_23" data-name="パス 23" d="M170.932,51.416c-2.042-1.331-4.175-2.569-6.332-3.716l-117,117c1.147,2.156,2.386,4.29,3.716,6.332Z" transform="translate(-37.552 -37.675)" fill="#98fcb7"/>
        <path id="パス_24" data-name="パス 24" d="M345.931,236.426q-1.239-3.682-2.822-7.226L229,343.332c2.363,1.032,4.772,1.973,7.226,2.8Z" transform="translate(-177.336 -177.536)" fill="#98fcb7"/>
        <path id="パス_25" data-name="パス 25" d="M208.742,86.665c-1.766-1.606-3.579-3.12-5.483-4.565L81.9,203.459c1.445,1.881,2.982,3.716,4.565,5.46Z" transform="translate(-63.983 -64.183)" fill="#98fcb7"/>
        <path id="パス_26" data-name="パス 26" d="M528.662,485.848a85.406,85.406,0,0,0,5.3-15.348L470.3,534.162a85.392,85.392,0,0,0,15.348-5.3Z" transform="translate(-363.279 -363.479)" fill="#98fcb7"/>
        <path id="パス_27" data-name="パス 27" d="M250.479,129.091c-1.468-1.858-3.028-3.671-4.657-5.391L123.5,246.045c1.744,1.629,3.533,3.166,5.391,4.657Z" transform="translate(-96.039 -96.239)" fill="#98fcb7"/>
        <path id="パス_28" data-name="パス 28" d="M296.191,178.863q-1.755-3.2-3.785-6.263L172.4,292.605q3.028,2.03,6.263,3.785Z" transform="translate(-133.721 -133.921)" fill="#98fcb7"/>
      </g>
      <circle id="楕円形_6" data-name="楕円形 6" cx="67.975" cy="67.975" r="67.975" transform="translate(22.382 22.582)" fill="#fff"/>
    </g>
    <text id="ワンポイント_アドバイス" data-name="ワンポイント
アドバイス" transform="translate(175 2009.729)" fill="#0fdc4e" font-size="22" font-family="Meiryo-Bold, Meiryo" font-weight="700" letter-spacing="-0.05em"><tspan x="-63.25" y="0">ワンポイント</tspan><tspan x="-52.8" y="36">アドバイス</tspan></text>
  </g>
</svg>
